# This file uses centimeters as units for non-parametric coordinates.

mtllib Wall.mtl
g default
v -5.480639 0.666513 -4.520138
v 4.375440 0.666513 -4.520138
v -5.480639 0.666513 -5.241491
v 4.375440 0.666513 -5.241491
v -7.542873 0.666513 -3.051376
v -6.821519 0.666513 -3.051376
v -7.542873 0.666513 6.170899
v -6.821519 0.666513 6.170899
v -5.480639 3.434251 -4.520138
v -5.560181 3.666458 -4.700459
v 4.195120 3.666458 -4.700459
v 4.375440 3.434251 -4.520138
v -5.402752 3.666458 -5.061171
v -5.480639 3.434251 -5.241491
v 4.195120 3.666458 -5.061171
v 4.375440 3.434251 -5.241491
v -6.821519 3.434251 -3.051376
v -7.001839 3.666458 -3.121306
v -7.362553 3.666458 -2.979841
v -7.542873 3.434251 -3.051376
v -6.821519 3.434251 6.170899
v -7.001839 3.666458 5.990580
v -7.362553 3.666458 5.990580
v -7.542873 3.434251 6.170899
vt 0.095090 0.306896
vt 0.292005 0.887307
vt 0.244519 0.862586
vt 0.094977 0.367370
vt 0.095760 0.006782
vt 0.562177 0.871585
vt 0.565881 0.889076
vt 0.560803 0.881399
vt 0.298731 0.896651
vt 0.296632 0.905644
vt 0.227335 0.871218
vt 0.233171 0.864015
vt 0.095583 0.656648
vt 0.095093 0.645298
vt 0.080565 0.663917
vt 0.089570 0.663750
vt 0.010803 0.306733
vt 0.011480 0.006594
vt 0.597201 0.958587
vt 0.276313 0.991309
vt 0.008486 0.680470
vt 0.009239 0.651103
vt 0.010644 0.367379
vt 0.172605 0.936330
vt 0.614867 0.943630
vt 0.571960 0.864438
vt 0.250539 0.855508
vt 0.294039 0.878170
vn 0.583305 0.613335 0.532518
vn 0.583306 0.613335 0.532518
vn 0.770975 0.628912 0.100330
vn 0.770975 0.628912 0.100330
vn 0.000000 0.613338 0.789821
vn 0.000000 0.613338 0.789821
vn 0.000000 0.613338 0.789821
vn 0.000000 0.613338 0.789821
vn 0.789823 0.613335 0.000000
vn 0.789823 0.613335 0.000000
vn 0.789823 0.613335 0.000000
vn 0.789823 0.613335 0.000000
vn -0.575024 0.613336 -0.541449
vn -0.575024 0.613336 -0.541449
vn -0.575024 0.613336 -0.541449
vn -0.575024 0.613336 -0.541449
vn 0.000000 0.613338 -0.789821
vn 0.000000 0.613338 -0.789821
vn 0.000000 0.613338 -0.789821
vn 0.000000 0.613338 -0.789821
vn 0.789824 0.613334 0.000000
vn 0.789824 0.613334 0.000000
vn -0.789821 0.613337 0.000000
vn -0.789821 0.613337 0.000000
vn -0.789821 0.613337 0.000000
vn -0.789821 0.613337 0.000000
vn 0.000000 0.613334 0.789824
vn 0.000000 0.613334 0.789824
vn 0.000000 0.613334 0.789824
vn 0.000000 0.613334 0.789824
vn 0.000000 0.000000 1.000000
vn 0.000000 0.000000 1.000000
vn 0.000000 0.000000 1.000000
vn 0.000000 0.000000 1.000000
vn 0.000000 1.000000 -0.000000
vn 0.000000 1.000000 -0.000000
vn 0.000000 1.000000 -0.000000
vn 0.000000 1.000000 -0.000000
vn 0.000000 0.000000 -1.000000
vn 0.000000 0.000000 -1.000000
vn 0.000000 0.000000 -1.000000
vn 0.000000 0.000000 -1.000000
vn 1.000000 0.000000 0.000000
vn 1.000000 0.000000 0.000000
vn 1.000000 0.000000 0.000000
vn 1.000000 0.000000 0.000000
vn 0.000000 0.000000 1.000000
vn 0.000000 0.000000 1.000000
vn 0.000000 0.000000 1.000000
vn 0.000000 0.000000 1.000000
vn 0.738527 0.000000 0.674224
vn 0.738527 0.000000 0.674224
vn 0.738527 0.000000 0.674224
vn 0.738527 0.000000 0.674224
vn 0.000000 1.000000 0.000000
vn 0.000000 1.000000 0.000000
vn -0.728043 0.000000 -0.685532
vn -0.728043 0.000000 -0.685532
vn -0.728043 0.000000 -0.685532
vn -0.728043 0.000000 -0.685532
vn 1.000000 0.000000 0.000000
vn 1.000000 0.000000 0.000000
vn 1.000000 0.000000 0.000000
vn 1.000000 0.000000 0.000000
vn 0.000000 1.000000 0.000000
vn 0.000000 1.000000 0.000000
vn -1.000000 0.000000 0.000000
vn -1.000000 0.000000 0.000000
vn -1.000000 0.000000 0.000000
vn -1.000000 0.000000 0.000000
s 1
g pCube9
usemtl initialShadingGroup
f 9/28/1 10/2/2 18/3/3 17/27/4
s off
f 10/2/5 9/28/6 12/26/7 11/6/8
f 11/6/9 12/26/10 16/7/11 15/8/12
f 13/9/13 14/10/14 20/11/15 19/12/16
f 14/10/17 13/9/18 15/8/19 16/7/20
s 1
f 17/27/4 18/3/3 22/13/21 21/14/22
s off
f 19/12/23 20/11/24 24/15/25 23/16/26
f 21/14/27 22/13/28 23/16/29 24/15/30
f 1/17/31 2/18/32 12/5/33 9/1/34
s 2
f 10/2/35 11/6/36 15/8/37 13/9/38
s off
f 14/10/39 16/7/40 4/19/41 3/20/42
f 2/25/43 4/19/44 16/7/45 12/26/46
f 7/21/47 8/22/48 21/14/49 24/15/50
f 1/17/51 9/1/52 17/4/53 6/23/54
s 2
f 10/2/35 13/9/38 19/12/55 18/3/56
s off
f 14/10/57 3/20/58 5/24/59 20/11/60
f 6/23/61 17/4/62 21/14/63 8/22/64
s 2
f 18/3/56 19/12/55 23/16/65 22/13/66
s off
f 20/11/67 5/24/68 7/21/69 24/15/70
