# This file uses centimeters as units for non-parametric coordinates.

mtllib Triangle Container.mtl
g default
v -93.227305 23.035358 -18.906717
v -94.647649 23.035358 -17.940626
v -93.227305 23.035358 -16.974537
v -93.360097 23.035358 -18.648636
v -94.401014 23.035358 -17.940626
v -93.360097 23.035358 -17.232617
v -92.290251 18.528967 -15.583706
v -92.409048 18.528967 -15.588820
v -92.229552 18.528967 -15.684555
v -92.621370 20.770127 -16.219745
v -92.681989 20.770127 -16.118037
v -92.800297 20.770127 -16.122974
v -92.290251 18.528967 -20.297546
v -92.229552 18.528967 -20.196697
v -92.409048 18.528967 -20.292432
v -92.621370 20.770127 -19.661552
v -92.681979 20.770127 -19.763237
v -92.800258 20.770127 -19.758303
v -93.033424 22.911388 -16.613520
v -92.976723 22.913796 -16.707256
v -93.034122 23.001268 -16.747184
v -93.145402 23.035358 -16.816120
v -93.149260 22.999409 -16.687311
v -93.143309 22.908911 -16.619767
v -93.033424 22.911388 -19.267733
v -93.143309 22.908911 -19.261484
v -93.149350 22.999411 -19.193836
v -93.145582 23.035358 -19.064781
v -93.034152 23.001271 -19.133932
v -92.976723 22.913796 -19.173996
v -95.949874 18.528967 -17.940626
v -95.894519 18.528967 -18.042257
v -95.894519 18.528967 -17.838996
v -95.424177 20.770127 -18.042257
v -95.479145 20.770127 -17.940626
v -95.424177 20.770127 -17.838996
v -95.000490 22.906464 -17.940626
v -94.948782 22.906531 -17.843117
v -94.898929 22.998636 -17.873669
v -94.808284 23.035358 -17.940626
v -94.898929 22.998636 -18.007585
v -94.948782 22.906531 -18.038138
v -93.060330 22.984581 -16.659249
v -93.060360 22.984581 -19.221947
v -94.956059 22.982143 -17.940628
v -93.227305 23.093782 -18.906717
v -93.247611 23.142821 -18.868336
v -93.293696 23.163132 -18.777675
v -94.524337 23.163132 -17.940626
v -94.611532 23.142821 -17.940626
v -94.647649 23.093782 -17.940626
v -94.401014 23.093782 -17.940626
v -94.437131 23.142821 -17.940626
v -93.339781 23.142821 -18.687017
v -93.360097 23.093782 -18.648636
v -93.293696 23.163132 -17.103576
v -93.247611 23.142821 -17.012916
v -93.227305 23.093782 -16.974537
v -93.360097 23.093782 -17.232617
v -93.339781 23.142821 -17.194235
v -92.780739 20.892016 -16.415444
v -92.780739 20.892016 -19.465851
v -93.095679 22.791906 -19.033739
v -93.095679 22.791906 -16.847515
v -95.264808 20.892016 -17.850555
v -92.939310 20.892016 -16.329677
v -93.243314 22.787575 -16.769975
v -94.843473 22.785469 -17.854206
v -92.939280 20.892016 -19.551599
v -95.264808 20.892016 -18.030701
v -94.843473 22.785469 -18.027050
v -93.243314 22.787575 -19.111280
v -92.775984 20.649871 -19.476868
v -92.426204 18.649224 -19.954585
v -92.775984 20.649871 -16.404424
v -92.426204 18.649224 -15.926668
v -95.277997 20.649871 -18.031349
v -95.697867 18.649224 -18.031349
v -92.935662 20.649871 -19.563236
v -92.586440 18.649224 -20.040045
v -92.935702 20.649871 -16.318037
v -92.586440 18.649224 -15.841208
v -95.277997 20.649871 -17.849903
v -95.697867 18.649224 -17.849903
vt 0.862899 0.640168
vt 0.835053 0.776455
vt 0.721387 0.696868
vt 0.670498 0.271331
vt 0.663088 0.274505
vt 0.623875 0.123544
vt 0.630594 0.120638
vt 0.655010 0.275366
vt 0.616514 0.123960
vt 0.386858 0.440160
vt 0.379058 0.440910
vt 0.406193 0.278797
vt 0.414314 0.279236
vt 0.371490 0.438165
vt 0.398589 0.276051
vt 0.082793 0.706176
vt 0.067948 0.695702
vt 0.444748 0.120383
vt 0.358300 0.588277
vt 0.442782 0.127557
vt 0.629015 0.113353
vt 0.304193 0.866408
vt 0.761517 0.048147
vt 0.307759 0.850923
vt 0.375054 0.581768
vt 0.297258 0.054430
vt 0.428470 0.124894
vt 0.292764 0.060297
vt 0.112411 0.317577
vt 0.530612 0.692345
vt 0.866496 0.162559
vt 0.202630 0.184396
vt 0.958634 0.294404
vt 0.859896 0.166835
vt 0.638628 0.263147
vt 0.429924 0.266274
vt 0.454883 0.137754
vt 0.605136 0.134828
vt 0.845885 0.162735
vt 0.679955 0.254264
vt 0.645592 0.122941
vt 0.760075 0.059531
vt 0.388012 0.259763
vt 0.216329 0.179437
vt 0.294981 0.071554
vt 0.413634 0.128001
vt 0.856579 0.825215
vt 0.898293 0.593946
vt 0.663174 0.691456
vt 0.405315 0.425526
vt 0.430127 0.290527
vt 0.639888 0.287690
vt 0.672682 0.423294
vt 0.128301 0.312862
vt 0.207124 0.197330
vt 0.380206 0.278331
vt 0.357332 0.419402
vt 0.720341 0.414581
vt 0.688957 0.272568
vt 0.856256 0.180092
vt 0.942452 0.290801
vt 0.691999 0.437635
vt 0.699917 0.438169
vt 0.707331 0.434630
vt 0.435391 0.127474
vt 0.767564 0.043749
vt 0.622250 0.117616
vt 0.436595 0.121455
vt 0.762497 0.040010
vt 0.879872 0.617187
vt 0.888243 0.607068
vt 0.850464 0.810838
vt 0.846053 0.800229
vt 0.894253 0.599423
vt 0.853836 0.819009
vt 0.841735 0.789838
vt 0.871711 0.627063
vt 0.838525 0.782069
vt 0.865979 0.634262
vt 0.669930 0.692097
vt 0.714768 0.696759
vt 0.679579 0.693330
vt 0.692504 0.694515
vt 0.705455 0.695734
vt 0.756629 0.042587
vt 0.291227 0.052249
vt 0.315927 0.870005
vt 0.321424 0.859031
vt 0.286430 0.056316
vt 0.429524 0.117488
vt 0.373660 0.568957
vt 0.361006 0.570302
vt 0.614079 0.116910
vt 0.058248 0.703926
vt 0.066541 0.713793
vt 0.195757 0.180569
vt 0.105469 0.313847
vt 0.965314 0.290225
vt 0.537783 0.688530
vt 0.523643 0.688602
vt 0.378985 0.450048
vt 0.700948 0.449801
vt 0.106513 0.707903
vt 0.343213 0.606587
vt 0.299337 0.831246
vt 0.447792 0.794887
vt 0.589428 0.738397
vt 0.560766 0.873968
vt 0.838525 0.782069
vt 0.835053 0.776455
vt 0.856579 0.825215
vt 0.853836 0.819009
vt 0.841735 0.789838
vt 0.846053 0.800229
vt 0.850464 0.810838
vn 0.000000 1.000000 0.000000
vn 0.000000 1.000000 0.000000
vn 0.000000 1.000000 0.000000
vn -0.046005 0.221112 0.974163
vn -0.045034 0.221880 0.974034
vn -0.051843 0.227416 0.972417
vn -0.243846 0.359669 0.900654
vn 0.828057 0.257867 0.497822
vn 0.828111 0.257063 0.498148
vn 0.866245 0.409205 0.286654
vn 0.826828 0.261091 0.498184
vn 0.827695 0.262971 -0.495750
vn 0.827695 0.262971 -0.495750
vn 0.828050 0.257868 -0.497832
vn 0.828104 0.257065 -0.498158
vn -0.041262 0.224848 -0.973520
vn -0.041262 0.224848 -0.973520
vn -0.046003 0.221113 -0.974163
vn -0.045032 0.221879 -0.974034
vn 0.066016 0.991519 0.111950
vn 0.280329 0.959723 0.018627
vn 0.280271 0.959739 -0.018680
vn 0.066020 0.991521 -0.111930
vn 0.834748 0.550555 0.009153
vn 0.866226 0.409171 -0.286760
vn 0.834742 0.550565 -0.009151
vn -0.476962 0.503684 0.720285
vn -0.494526 0.502384 0.709263
vn -0.719769 0.351324 0.598751
vn -0.154939 0.951850 0.264527
vn -0.154424 0.988005 0.000008
vn -0.189274 0.949463 0.250390
vn -0.154763 0.951934 -0.264330
vn -0.189139 0.949531 -0.250234
vn -0.476924 0.503815 -0.720218
vn -0.243753 0.359706 -0.900664
vn -0.719756 0.351390 -0.598729
vn -0.494481 0.502504 -0.709210
vn -0.864298 0.181461 -0.469106
vn -0.864298 0.181461 -0.469106
vn -0.864569 0.186916 -0.466459
vn -0.864604 0.187690 -0.466082
vn -0.864294 0.181460 0.469115
vn -0.864294 0.181460 0.469115
vn -0.864599 0.187688 0.466092
vn -0.864563 0.186915 0.466469
vn 0.986537 0.163536 0.000000
vn 0.986537 0.163536 0.000000
vn 0.986537 0.163536 0.000000
vn 0.986537 0.163536 0.000000
vn -0.549374 0.113999 0.827763
vn -0.549374 0.113999 0.827763
vn -0.549374 0.113999 0.827763
vn -0.549374 0.113999 0.827763
vn -0.549374 0.113999 -0.827764
vn -0.549374 0.113999 -0.827764
vn -0.549374 0.113999 -0.827764
vn -0.549374 0.113999 -0.827764
vn 0.000000 1.000000 -0.000000
vn 0.000000 1.000000 -0.000000
vn 0.000000 1.000000 -0.000000
vn 0.985058 0.172221 0.000000
vn 0.985058 0.172221 0.000000
vn 0.985058 0.172221 0.000000
vn 0.985058 0.172221 0.000000
vn -0.541277 0.108911 -0.833761
vn -0.541277 0.108911 -0.833761
vn -0.541277 0.108911 -0.833761
vn -0.541277 0.108911 -0.833761
vn -0.541278 0.108910 0.833761
vn -0.541278 0.108910 0.833761
vn -0.541278 0.108910 0.833761
vn -0.541278 0.108910 0.833761
vn 0.000000 -1.000000 -0.000000
vn 0.000000 -1.000000 -0.000000
vn 0.000000 -1.000000 -0.000000
vn 0.000000 -1.000000 -0.000000
vn 0.000000 -1.000000 -0.000000
vn 0.000000 -1.000000 -0.000000
vn 0.000000 -1.000000 -0.000000
vn 0.000000 -1.000000 -0.000000
vn 0.000000 -1.000000 -0.000000
vn -0.041267 0.224856 0.973518
vn -0.041267 0.224856 0.973518
vn 0.827699 0.262978 0.495739
vn 0.827699 0.262978 0.495739
vn 0.826815 0.261122 -0.498189
vn -0.051847 0.227445 -0.972410
vn -0.862647 0.202914 -0.463321
vn -0.862641 0.202914 0.463332
vn -0.108584 0.550845 0.827514
vn 0.715081 0.581814 0.387494
vn 0.114150 0.961656 0.249375
vn 0.714828 0.582277 -0.387265
vn -0.108666 0.551320 -0.827187
vn 0.113938 0.961789 -0.248957
vn -0.744891 0.499178 -0.442672
vn -0.744887 0.499185 0.442672
vn -0.338810 0.940855 0.000000
vn -0.154029 0.961765 -0.226455
vn -0.215198 0.923899 -0.316386
vn -0.215198 0.923899 -0.316386
vn -0.141950 0.967624 -0.208697
vn -0.519597 0.382704 -0.763909
vn -0.557198 0.135853 -0.819191
vn -0.556374 0.146138 -0.817980
vn -0.519597 0.382704 -0.763909
vn 0.215193 0.923903 0.316380
vn 0.215193 0.923903 0.316379
vn 0.519602 0.382665 0.763925
vn 0.549165 0.215745 0.807386
vn 0.548527 0.220823 0.806446
vn 0.519602 0.382665 0.763925
vn -0.562412 0.000000 -0.826857
vn -0.562412 0.000000 -0.826857
vn 0.562412 0.000000 0.826857
vn 0.562412 0.000000 0.826857
vn -0.562411 0.000000 0.826858
vn -0.562411 0.000000 0.826858
vn -0.557198 0.135850 0.819192
vn -0.556374 0.146134 0.817981
vn 0.562411 0.000000 -0.826858
vn 0.562411 0.000000 -0.826858
vn 0.549165 0.215745 -0.807386
vn 0.548526 0.220823 -0.806447
vn 1.000000 0.000000 0.000000
vn 1.000000 0.000000 0.000000
vn 0.990737 0.135796 0.000000
vn 0.990737 0.135798 0.000000
vn -1.000000 0.000000 0.000000
vn -1.000000 0.000000 0.000000
vn -0.975303 0.220870 0.000000
vn -0.975303 0.220870 0.000000
vn -0.141951 0.967623 0.208698
vn -0.215200 0.923898 0.316389
vn -0.215200 0.923898 0.316389
vn -0.154030 0.961765 0.226457
vn -0.519598 0.382695 0.763913
vn -0.519598 0.382695 0.763913
vn 0.519602 0.382665 -0.763925
vn 0.519602 0.382665 -0.763925
vn 0.215191 0.923904 -0.316377
vn 0.215191 0.923904 -0.316377
vn 0.923921 0.382584 0.000000
vn 0.923921 0.382584 0.000000
vn 0.403299 0.915068 0.000000
vn 0.403299 0.915068 0.000000
vn 0.403299 0.915068 0.000000
vn 0.403299 0.915068 0.000000
vn -0.403299 0.915068 0.000000
vn -0.403299 0.915068 0.000000
vn -0.403299 0.915068 0.000000
vn -0.403299 0.915068 0.000000
vn -0.923855 0.382743 0.000000
vn -0.923855 0.382743 0.000000
vn 0.607510 0.794312 0.000000
vn 0.607510 0.794312 0.000000
vn 0.607510 0.794312 0.000000
vn 0.607510 0.794312 0.000000
vn 0.769950 -0.017443 0.637865
vn 0.769950 -0.017443 0.637865
vn 0.769950 -0.017443 0.637865
vn 0.769950 -0.017443 0.637865
vn 0.715666 -0.698443 0.000000
vn 0.715666 -0.698443 0.000000
vn 0.715666 -0.698443 0.000000
vn 0.715666 -0.698443 0.000000
vn 0.769949 -0.017430 -0.637867
vn 0.769949 -0.017430 -0.637867
vn 0.769949 -0.017430 -0.637867
vn 0.769949 -0.017430 -0.637867
vn -0.428442 0.622311 0.655108
vn -0.428442 0.622311 0.655108
vn -0.428442 0.622311 0.655108
vn -0.428442 0.622311 0.655108
vn -0.830886 -0.004009 0.556428
vn -0.830886 -0.004009 0.556428
vn -0.830886 -0.004009 0.556428
vn -0.830886 -0.004009 0.556428
vn -0.488276 -0.490833 0.721574
vn -0.488276 -0.490833 0.721574
vn -0.488276 -0.490833 0.721574
vn -0.488276 -0.490833 0.721574
vn 0.085295 -0.017059 0.996210
vn 0.085295 -0.017059 0.996210
vn 0.085295 -0.017059 0.996210
vn 0.085295 -0.017059 0.996210
vn -0.428447 0.622298 -0.655117
vn -0.428447 0.622298 -0.655117
vn -0.428447 0.622298 -0.655117
vn -0.428447 0.622298 -0.655117
vn 0.085281 -0.017056 -0.996211
vn 0.085281 -0.017056 -0.996211
vn 0.085281 -0.017056 -0.996211
vn 0.085281 -0.017056 -0.996211
vn -0.488279 -0.490822 -0.721580
vn -0.488279 -0.490822 -0.721580
vn -0.488279 -0.490822 -0.721580
vn -0.488279 -0.490822 -0.721580
vn -0.830874 -0.004010 -0.556447
vn -0.830874 -0.004010 -0.556447
vn -0.830874 -0.004010 -0.556447
vn -0.830874 -0.004010 -0.556447
vn 0.772012 -0.016747 0.635387
vn 0.772012 -0.016747 0.635387
vn 0.772012 -0.016747 0.635387
vn 0.772012 -0.016747 0.635387
vn 0.613942 -0.789351 0.000000
vn 0.613942 -0.789351 0.000000
vn 0.613942 -0.789351 0.000000
vn 0.613942 -0.789351 0.000000
vn 0.772008 -0.016761 -0.635392
vn 0.772008 -0.016761 -0.635392
vn 0.772008 -0.016761 -0.635392
vn 0.772008 -0.016761 -0.635392
vn 0.521705 0.853126 0.000000
vn 0.521705 0.853126 0.000000
vn 0.521705 0.853126 0.000000
vn 0.521705 0.853126 0.000000
vn 0.063502 -0.013327 -0.997893
vn 0.063502 -0.013327 -0.997893
vn 0.063502 -0.013327 -0.997893
vn 0.063502 -0.013327 -0.997893
vn -0.439710 -0.595495 -0.672339
vn -0.439710 -0.595496 -0.672339
vn -0.439710 -0.595495 -0.672339
vn -0.439710 -0.595495 -0.672339
vn -0.819577 -0.006517 -0.572932
vn -0.819577 -0.006517 -0.572932
vn -0.819577 -0.006517 -0.572932
vn -0.819577 -0.006517 -0.572932
vn -0.390651 0.693710 -0.605110
vn -0.390651 0.693710 -0.605110
vn -0.390651 0.693710 -0.605110
vn -0.390651 0.693710 -0.605110
vn -0.819575 -0.006525 0.572935
vn -0.819575 -0.006525 0.572935
vn -0.819575 -0.006525 0.572935
vn -0.819575 -0.006525 0.572935
vn -0.439715 -0.595486 0.672345
vn -0.439715 -0.595486 0.672345
vn -0.439715 -0.595486 0.672345
vn -0.439715 -0.595486 0.672345
vn 0.063495 -0.013325 0.997893
vn 0.063495 -0.013325 0.997893
vn 0.063495 -0.013325 0.997893
vn 0.063495 -0.013325 0.997893
vn -0.390652 0.693708 0.605112
vn -0.390652 0.693708 0.605111
vn -0.390652 0.693708 0.605111
vn -0.390652 0.693708 0.605112
s off
g Triangle_Box
usemtl initialShadingGroup
f 4/107/1 5/108/2 6/106/3
s 1
f 12/4/4 11/5/5 19/6/6 24/7/7
s 2
f 11/5/8 10/8/9 20/9/10 19/6/11
f 14/10/12 13/11/13 17/12/14 16/13/15
s 4
f 13/11/16 15/14/17 18/15/18 17/12/19
s 5
f 22/16/20 21/17/21 29/92/22 28/19/23
s 2
f 21/93/24 20/9/10 30/20/25 29/18/26
s 1
f 24/7/7 23/21/27 39/85/28 38/23/29
s 5
f 23/95/30 22/16/20 40/24/31 39/22/32
f 28/19/23 27/25/33 41/88/34 40/24/31
s 4
f 27/90/35 26/27/36 42/28/37 41/26/38
f 32/29/39 31/97/40 35/96/41 34/32/42
s 1
f 31/98/43 33/33/44 36/34/45 35/31/46
s off
f 61/35/47 62/36/48 63/37/49 64/38/50
f 65/39/51 66/40/52 67/41/53 68/42/54
f 69/43/55 70/44/56 71/45/57 72/46/58
s 5
f 28/19/23 40/24/31 2/105/59 1/104/60
f 40/24/31 22/16/20 3/103/61 2/105/59
f 22/16/20 28/19/23 1/104/60 3/103/61
s off
f 74/50/62 73/51/63 75/52/64 76/53/65
f 78/54/66 77/55/67 79/56/68 80/57/69
f 82/58/70 81/59/71 83/60/72 84/61/73
f 31/30/74 32/100/75 15/101/76 13/11/77 14/10/78 9/62/79 7/63/80 8/102/81 33/99/82
s 1
f 8/64/83 7/63/84 11/5/5 12/4/4
s 2
f 7/63/85 9/62/86 10/8/9 11/5/8
f 16/13/15 17/12/14 25/65/87 30/20/25
s 4
f 17/12/19 18/15/18 26/27/36 25/65/88
f 34/32/42 35/96/41 37/89/89 42/28/37
s 1
f 35/31/46 36/34/45 38/23/29 37/66/90
f 23/21/27 24/7/7 19/6/6 43/67/91
s 2
f 19/6/11 20/9/10 21/93/24 43/67/92
s 5
f 21/17/21 22/16/20 23/95/30 43/94/93
s 2
f 29/18/26 30/20/25 25/65/87 44/68/94
s 4
f 25/65/88 26/27/36 27/90/35 44/68/95
s 5
f 27/25/33 28/19/23 29/92/22 44/91/96
s 4
f 41/26/38 42/28/37 37/89/89 45/86/97
s 1
f 37/66/90 38/23/29 39/85/28 45/69/98
s 5
f 39/22/32 40/24/31 41/88/34 45/87/99
s 9
f 48/70/100 47/71/101 50/115/102 49/114/103
s 10
f 47/71/104 46/74/105 51/75/106 50/115/107
s 9
f 49/114/103 53/113/108 54/77/109 48/70/100
s 11
f 53/113/110 52/109/111 55/79/112 54/77/113
s 10
f 1/48/114 2/111/115 51/75/106 46/74/105
s 11
f 5/2/116 4/1/117 55/79/112 52/109/111
s 12
f 2/47/118 3/49/119 58/80/120 51/112/121
s 13
f 6/3/122 5/110/123 52/78/124 59/81/125
s 14
f 3/49/126 1/48/127 46/74/128 58/80/129
s 15
f 4/1/130 6/3/131 59/81/132 55/79/133
s 16
f 49/73/134 50/72/135 57/82/136 56/83/137
s 12
f 50/72/138 51/112/121 58/80/120 57/82/139
s 13
f 52/78/124 53/76/140 60/84/141 59/81/125
s 16
f 53/76/142 49/73/134 56/83/137 60/84/143
s 14
f 46/74/128 47/71/144 57/82/145 58/80/129
s off
f 47/71/146 48/70/147 56/83/148 57/82/149
f 48/70/150 54/77/151 60/84/152 56/83/153
s 15
f 54/77/154 55/79/133 59/81/132 60/84/155
s off
f 10/8/156 16/13/157 62/36/158 61/35/159
f 16/13/160 30/20/161 63/37/162 62/36/163
f 30/20/164 20/9/165 64/38/166 63/37/167
f 20/9/168 10/8/169 61/35/170 64/38/171
f 36/34/172 12/4/173 66/40/174 65/39/175
f 12/4/176 24/7/177 67/41/178 66/40/179
f 24/7/180 38/23/181 68/42/182 67/41/183
f 38/23/184 36/34/185 65/39/186 68/42/187
f 18/15/188 34/32/189 70/44/190 69/43/191
f 34/32/192 42/28/193 71/45/194 70/44/195
f 42/28/196 26/27/197 72/46/198 71/45/199
f 26/27/200 18/15/201 69/43/202 72/46/203
f 14/10/204 16/13/205 73/51/206 74/50/207
f 16/13/208 10/8/209 75/52/210 73/51/211
f 10/8/212 9/62/213 76/53/214 75/52/215
f 9/62/216 14/10/217 74/50/218 76/53/219
f 32/29/220 34/32/221 77/55/222 78/54/223
f 34/32/224 18/15/225 79/56/226 77/55/227
f 18/15/228 15/14/229 80/57/230 79/56/231
f 15/14/232 32/29/233 78/54/234 80/57/235
f 8/64/236 12/4/237 81/59/238 82/58/239
f 12/4/240 36/34/241 83/60/242 81/59/243
f 36/34/244 33/33/245 84/61/246 83/60/247
f 33/33/248 8/64/249 82/58/250 84/61/251
